<?xml version="1.0" standalone="no"?>
<!DOCTYPE svg PUBLIC "-//W3C//DTD SVG 20010904//EN"
 "http://www.w3.org/TR/2001/REC-SVG-20010904/DTD/svg10.dtd">
<svg version="1.0" xmlns="http://www.w3.org/2000/svg"
 width="700.000000pt" height="700.000000pt" viewBox="0 0 700.000000 700.000000"
 preserveAspectRatio="xMidYMid meet">
<metadata>
Created by potrace 1.14, written by Peter Selinger 2001-2017
</metadata>
<g transform="translate(0.000000,700.000000) scale(0.100000,-0.100000)"
fill="#000000" stroke="none">
<path d="M1235 6994 c-11 -3 -60 -12 -110 -21 -49 -9 -96 -20 -102 -26 -7 -5
-13 -7 -13 -3 0 10 -141 -44 -232 -89 -245 -122 -455 -318 -589 -550 -46 -78
-106 -208 -112 -241 -2 -11 -7 -26 -10 -34 -17 -44 -43 -149 -54 -225 -10 -66
-10 -4533 0 -4605 6 -49 15 -91 30 -155 62 -259 253 -554 472 -731 175 -142
431 -262 620 -291 17 -2 41 -7 55 -11 14 -4 1044 -8 2290 -9 2197 -2 2268 -2
2365 17 118 23 175 38 193 52 6 6 12 8 12 4 0 -6 71 20 146 55 138 64 281 166
394 279 70 70 170 190 170 205 0 3 5 11 10 18 59 70 149 267 184 403 15 57 18
75 36 179 10 58 8 4554 -2 4604 -4 18 -10 40 -12 50 -3 9 -8 31 -11 50 -3 19
-10 42 -16 52 -5 11 -8 19 -5 19 10 0 -47 148 -90 235 -191 382 -552 661 -964
746 -25 5 -56 13 -70 16 -26 8 -4550 14 -4585 7z"/>
</g>
</svg>
